<svg xmlns="http://www.w3.org/2000/svg"  viewBox="0 0 64 64" width="96px" height="96px"><linearGradient id="hhPZoEQK6pui7iMfy0UKLa" x1="48" x2="48" y1="15.75" y2="20.25" gradientUnits="userSpaceOnUse" spreadMethod="reflect"><stop offset="0" stop-color="#6dc7ff"/><stop offset="1" stop-color="#e6abff"/></linearGradient><path fill="url(#hhPZoEQK6pui7iMfy0UKLa)" d="M48 16A2 2 0 1 0 48 20A2 2 0 1 0 48 16Z"/><linearGradient id="hhPZoEQK6pui7iMfy0UKLb" x1="40" x2="40" y1="15.75" y2="20.25" gradientUnits="userSpaceOnUse" spreadMethod="reflect"><stop offset="0" stop-color="#6dc7ff"/><stop offset="1" stop-color="#e6abff"/></linearGradient><path fill="url(#hhPZoEQK6pui7iMfy0UKLb)" d="M40 16A2 2 0 1 0 40 20A2 2 0 1 0 40 16Z"/><linearGradient id="hhPZoEQK6pui7iMfy0UKLc" x1="48" x2="48" y1="29.625" y2="34.382" gradientUnits="userSpaceOnUse" spreadMethod="reflect"><stop offset="0" stop-color="#6dc7ff"/><stop offset="1" stop-color="#e6abff"/></linearGradient><path fill="url(#hhPZoEQK6pui7iMfy0UKLc)" d="M48 30A2 2 0 1 0 48 34A2 2 0 1 0 48 30Z"/><linearGradient id="hhPZoEQK6pui7iMfy0UKLd" x1="40" x2="40" y1="29.625" y2="34.382" gradientUnits="userSpaceOnUse" spreadMethod="reflect"><stop offset="0" stop-color="#6dc7ff"/><stop offset="1" stop-color="#e6abff"/></linearGradient><path fill="url(#hhPZoEQK6pui7iMfy0UKLd)" d="M40 30A2 2 0 1 0 40 34A2 2 0 1 0 40 30Z"/><linearGradient id="hhPZoEQK6pui7iMfy0UKLe" x1="48" x2="48" y1="43.625" y2="48.502" gradientUnits="userSpaceOnUse" spreadMethod="reflect"><stop offset="0" stop-color="#6dc7ff"/><stop offset="1" stop-color="#e6abff"/></linearGradient><path fill="url(#hhPZoEQK6pui7iMfy0UKLe)" d="M48 44A2 2 0 1 0 48 48A2 2 0 1 0 48 44Z"/><linearGradient id="hhPZoEQK6pui7iMfy0UKLf" x1="40" x2="40" y1="43.625" y2="48.502" gradientUnits="userSpaceOnUse" spreadMethod="reflect"><stop offset="0" stop-color="#6dc7ff"/><stop offset="1" stop-color="#e6abff"/></linearGradient><path fill="url(#hhPZoEQK6pui7iMfy0UKLf)" d="M40 44A2 2 0 1 0 40 48A2 2 0 1 0 40 44Z"/><linearGradient id="hhPZoEQK6pui7iMfy0UKLg" x1="32" x2="32" y1="6.833" y2="57.492" gradientUnits="userSpaceOnUse" spreadMethod="reflect"><stop offset="0" stop-color="#1a6dff"/><stop offset="1" stop-color="#c822ff"/></linearGradient><path fill="url(#hhPZoEQK6pui7iMfy0UKLg)" d="M55,13c0-1.654-1.346-3-3-3h-1V9c0-1.654-1.346-3-3-3H16c-1.654,0-3,1.346-3,3v1h-1 c-1.654,0-3,1.346-3,3v10c0,0.771,0.301,1.468,0.78,2C9.301,25.532,9,26.229,9,27v10c0,0.771,0.301,1.468,0.78,2 C9.301,39.532,9,40.229,9,41v10c0,1.654,1.346,3,3,3h1v1c0,1.654,1.346,3,3,3h8c1.654,0,3-1.346,3-3v-1h10v1c0,1.654,1.346,3,3,3h8 c1.654,0,3-1.346,3-3v-1h1c1.654,0,3-1.346,3-3V41c0-0.771-0.301-1.468-0.78-2c0.48-0.532,0.78-1.229,0.78-2V27 c0-0.771-0.301-1.468-0.78-2c0.48-0.532,0.78-1.229,0.78-2V13z M15,9c0-0.551,0.448-1,1-1h32c0.552,0,1,0.449,1,1v1H15V9z M11,13 c0-0.551,0.448-1,1-1h40c0.552,0,1,0.449,1,1v10c0,0.551-0.448,1-1,1H33.816c-0.414-1.161-1.514-2-2.816-2H19 c-1.302,0-2.402,0.839-2.816,2H12c-0.552,0-1-0.449-1-1V13z M53,27v10c0,0.551-0.448,1-1,1H33.816c-0.414-1.161-1.514-2-2.816-2H19 c-1.302,0-2.402,0.839-2.816,2H12c-0.552,0-1-0.449-1-1V27c0-0.551,0.448-1,1-1h40C52.552,26,53,26.449,53,27z M25,55 c0,0.551-0.448,1-1,1h-8c-0.552,0-1-0.449-1-1v-1h10V55z M49,55c0,0.551-0.448,1-1,1h-8c-0.552,0-1-0.449-1-1v-1h10V55z M53,51 c0,0.551-0.448,1-1,1H33.816c-0.414-1.161-1.514-2-2.816-2H19c-1.302,0-2.402,0.839-2.816,2H12c-0.552,0-1-0.449-1-1V41 c0-0.551,0.448-1,1-1h40c0.552,0,1,0.449,1,1V51z"/><linearGradient id="hhPZoEQK6pui7iMfy0UKLh" x1="18" x2="18" y1="6.833" y2="57.492" gradientUnits="userSpaceOnUse" spreadMethod="reflect"><stop offset="0" stop-color="#1a6dff"/><stop offset="1" stop-color="#c822ff"/></linearGradient><path fill="url(#hhPZoEQK6pui7iMfy0UKLh)" d="M16 31H20V33H16z"/><linearGradient id="hhPZoEQK6pui7iMfy0UKLi" x1="32" x2="32" y1="6.833" y2="57.492" gradientUnits="userSpaceOnUse" spreadMethod="reflect"><stop offset="0" stop-color="#1a6dff"/><stop offset="1" stop-color="#c822ff"/></linearGradient><path fill="url(#hhPZoEQK6pui7iMfy0UKLi)" d="M30 31H34V33H30z"/><linearGradient id="hhPZoEQK6pui7iMfy0UKLj" x1="25" x2="25" y1="6.833" y2="57.492" gradientUnits="userSpaceOnUse" spreadMethod="reflect"><stop offset="0" stop-color="#1a6dff"/><stop offset="1" stop-color="#c822ff"/></linearGradient><path fill="url(#hhPZoEQK6pui7iMfy0UKLj)" d="M22 31H28V33H22z"/><linearGradient id="hhPZoEQK6pui7iMfy0UKLk" x1="18" x2="18" y1="6.833" y2="57.492" gradientUnits="userSpaceOnUse" spreadMethod="reflect"><stop offset="0" stop-color="#1a6dff"/><stop offset="1" stop-color="#c822ff"/></linearGradient><path fill="url(#hhPZoEQK6pui7iMfy0UKLk)" d="M16 45H20V47H16z"/><linearGradient id="hhPZoEQK6pui7iMfy0UKLl" x1="32" x2="32" y1="6.833" y2="57.492" gradientUnits="userSpaceOnUse" spreadMethod="reflect"><stop offset="0" stop-color="#1a6dff"/><stop offset="1" stop-color="#c822ff"/></linearGradient><path fill="url(#hhPZoEQK6pui7iMfy0UKLl)" d="M30 45H34V47H30z"/><linearGradient id="hhPZoEQK6pui7iMfy0UKLm" x1="25" x2="25" y1="6.833" y2="57.492" gradientUnits="userSpaceOnUse" spreadMethod="reflect"><stop offset="0" stop-color="#1a6dff"/><stop offset="1" stop-color="#c822ff"/></linearGradient><path fill="url(#hhPZoEQK6pui7iMfy0UKLm)" d="M22 45H28V47H22z"/><linearGradient id="hhPZoEQK6pui7iMfy0UKLn" x1="18" x2="18" y1="6.833" y2="57.492" gradientUnits="userSpaceOnUse" spreadMethod="reflect"><stop offset="0" stop-color="#1a6dff"/><stop offset="1" stop-color="#c822ff"/></linearGradient><path fill="url(#hhPZoEQK6pui7iMfy0UKLn)" d="M16 17H20V19H16z"/><linearGradient id="hhPZoEQK6pui7iMfy0UKLo" x1="32" x2="32" y1="6.833" y2="57.492" gradientUnits="userSpaceOnUse" spreadMethod="reflect"><stop offset="0" stop-color="#1a6dff"/><stop offset="1" stop-color="#c822ff"/></linearGradient><path fill="url(#hhPZoEQK6pui7iMfy0UKLo)" d="M30 17H34V19H30z"/><linearGradient id="hhPZoEQK6pui7iMfy0UKLp" x1="25" x2="25" y1="6.833" y2="57.492" gradientUnits="userSpaceOnUse" spreadMethod="reflect"><stop offset="0" stop-color="#1a6dff"/><stop offset="1" stop-color="#c822ff"/></linearGradient><path fill="url(#hhPZoEQK6pui7iMfy0UKLp)" d="M22 17H28V19H22z"/></svg>