<svg id="Layer_1" data-name="Layer 1" xmlns="http://www.w3.org/2000/svg" viewBox="0 0 1080 1080"><defs><style>.cls-1{fill:#3b54a5;}.cls-2{fill:#0b4870;}.cls-3{fill:#fab9af;}.cls-4{fill:#ead8cf;}.cls-5{fill:#cce9ff;}.cls-6{fill:#e2d2ca;}.cls-7{fill:#eea886;}.cls-8{fill:#2a94f4;}.cls-9{fill:#ffbe55;}.cls-10,.cls-11{fill:#7510f7;}.cls-11{stroke:#fff;}.cls-11,.cls-12{stroke-miterlimit:10;}.cls-12{fill:none;stroke:#4d4d4d;}.cls-13{fill:#3c469d;}</style></defs><path class="cls-1" d="M671.5,607H650.28a.69.69,0,0,0-.68.68v16.1a8.48,8.48,0,0,0,8.49,8.48h5.61a8.47,8.47,0,0,0,8.48-8.48V607.7A.68.68,0,0,0,671.5,607Z"/><path class="cls-1" d="M669,629.51c4.79-2.71,13-10.69,11.64-16.3a4.74,4.74,0,0,0-2.66-3.27c-3.17-1.47-7.71.31-8.22.52l1.51,3.15c1.1-.45,3.78-1.18,5-.59a1.24,1.24,0,0,1,.68,1c.8,3.27-5.63,10.16-9.94,12.6Z"/><path class="cls-1" d="M515.85,620.21H406.1a3.35,3.35,0,0,1-3.35-3.35V553.92a3.35,3.35,0,0,1,3.35-3.35H515.85a3.35,3.35,0,0,1,3.35,3.35v62.94A3.35,3.35,0,0,1,515.85,620.21Z"/><path class="cls-1" d="M474.14,629.28a10.21,10.21,0,0,1-.59-3.52v-5.55H449.26v5.55a10,10,0,0,1-.6,3.52c-.58,1.55-1.69,3.27-3.76,3.27h33C475.83,632.55,474.72,630.83,474.14,629.28Z"/><path class="cls-1" d="M698.36,640H349.65a2.12,2.12,0,0,1-2.12-2.12v-3.26a2.11,2.11,0,0,1,2.12-2.11H698.36a2.11,2.11,0,0,1,2.12,2.11v3.26A2.12,2.12,0,0,1,698.36,640Z"/><rect class="cls-1" x="407.9" y="640.01" width="8.01" height="90.03"/><rect class="cls-1" x="627.04" y="640.01" width="8.01" height="90.03"/><path class="cls-1" d="M515.85,609.13H406.1a3.34,3.34,0,0,1-3.35-3.34V542.84a3.35,3.35,0,0,1,3.35-3.34H515.85a3.34,3.34,0,0,1,3.35,3.34v62.95A3.34,3.34,0,0,1,515.85,609.13Z"/><rect class="cls-1" x="407.26" y="543.37" width="107.58" height="61.17"/><path class="cls-1" d="M638.09,620.21H528.34a3.35,3.35,0,0,1-3.35-3.35V553.92a3.35,3.35,0,0,1,3.35-3.35H638.09a3.35,3.35,0,0,1,3.35,3.35v62.94A3.35,3.35,0,0,1,638.09,620.21Z"/><path class="cls-1" d="M596.38,629.28a10.21,10.21,0,0,1-.59-3.52v-5.55h-24.3v5.55a10,10,0,0,1-.59,3.52c-.58,1.55-1.69,3.27-3.76,3.27h33C598.07,632.55,597,630.83,596.38,629.28Z"/><path class="cls-1" d="M638.09,609.13H528.34a3.34,3.34,0,0,1-3.35-3.34V542.84a3.35,3.35,0,0,1,3.35-3.34H638.09a3.34,3.34,0,0,1,3.35,3.34v62.95A3.34,3.34,0,0,1,638.09,609.13Z"/><rect class="cls-1" x="529.5" y="543.37" width="107.59" height="61.17"/><path class="cls-1" d="M660.32,600.88a7.93,7.93,0,0,0,2-1.1,4.59,4.59,0,0,0,1.44-1.65,1.71,1.71,0,0,0-.12-1.74,4.55,4.55,0,0,0-1.5-1.29,15.73,15.73,0,0,0-2-.92,11.72,11.72,0,0,1-1.18-.46c-.41-.18-.81-.39-1.22-.61a14,14,0,0,1-4.18-3.67,15.8,15.8,0,0,1-2.61-5.18,14,14,0,0,1-.37-6.26,11.78,11.78,0,0,1,1.15-3.4,10.37,10.37,0,0,1,2.53-3.14,10.77,10.77,0,0,1,3.72-2,13.77,13.77,0,0,1,3.93-.61h1.34a5.59,5.59,0,0,1,.14,11.17,5.71,5.71,0,0,1-2.52-.56,3.7,3.7,0,0,0-1.45-.52,2,2,0,0,0-1.58,1.18,7,7,0,0,0-.85,3.19,9.37,9.37,0,0,0,.63,3.73,9.87,9.87,0,0,0,2.15,3.37,10.28,10.28,0,0,0,.76.71c.27.23.54.42.92.69a16.39,16.39,0,0,1,2,1.67,6.23,6.23,0,0,1,1.53,2.33,3.06,3.06,0,0,1,.15,1.5,3.29,3.29,0,0,1-.55,1.33,6.58,6.58,0,0,1-1.9,1.69,20.48,20.48,0,0,1-2.17,1.15.33.33,0,0,1-.42-.15.32.32,0,0,1,.16-.42h0Z"/><path class="cls-1" d="M613.67,596.83H554.58a6.29,6.29,0,0,1-6.29-6.29V556.86a6.29,6.29,0,0,1,6.29-6.28h59.09a6.29,6.29,0,0,1,6.29,6.28v33.68A6.29,6.29,0,0,1,613.67,596.83Z"/><path class="cls-2" d="M454.86,632a6.74,6.74,0,1,1,13.47,0"/><path class="cls-3" d="M402.56,575.42s4.47-2.14,6.44-3.26,7-2.65,7.42-3,15-1.26,15.86-2,1.74,1.78-2,2.61-9,2.85-9.32,4.32,3.88,1.83,4.3,3-.12.95-.72,1.21-4.95-2.15-6.87-1.47-4.84-.26-6.31.24L402.72,580Z"/><path class="cls-4" d="M410.63,578.58l2.31-.85s-2.88-6.75-4.13-6.59a30.69,30.69,0,0,0-3.25.67Z"/><path class="cls-5" d="M411.16,579.74c-.29-.22-4.9-9-4.9-9L396.43,572l5.31,10.46Z"/><path class="cls-3" d="M439.5,616.68s5,.46,7.34.51,7.53,1.33,8.08,1.22,13.78,6.7,14.95,6.49.6,2.48-3.14,1.23-9.4-2.21-10.42-1.06,2.44,3.62,2.18,4.9-.59.77-1.25.68-3.22-4.47-5.26-4.86-4.11-2.76-5.66-3.09l-9.06-1.94Z"/><path class="cls-3" d="M376.77,509.3s11.27-4.22,16.48,4.37,4.7,25.77-1,27.88-14.23,1-17.14-4.36-5.54-13.14-5.41-18.33S373.8,510.79,376.77,509.3Z"/><path class="cls-3" d="M391,542s-.92,8.09-.14,9.6-14.08,0-14.08,0-1.34-11.68-3.71-18.57S391,542,391,542Z"/><path class="cls-2" d="M373.11,533s.55,8.69,4.88,8,10.14-13.39,11.95-14,1.83-1.7,1.83-1.7l1.13,1.66,1.92.12s-1.75-5.16.9-7.26-2.75-16.71-16.65-11.85c0,0-10.68,2.95-10.29,9S370.72,530,373.11,533Z"/><path class="cls-6" d="M392.66,553.35s-.05-2.86-1.35-3.14-14.34-1.53-15.93-.9v3.34S378.45,554.54,392.66,553.35Z"/><path class="cls-7" d="M391.48,523.07c-.24-1-2.83-3.93-3.82-.82s1.5,7.31,2.89,7S392.1,525.65,391.48,523.07Z"/><path class="cls-2" d="M410.42,662.73s1.77,12.67,1,14.91S404,690.37,404,690.37l-7.49,32.19h-9l-.75-37.43L383,721.06l-7.48-.75-9-35.18s-15.85-.86-12.79-25.13S410.42,662.73,410.42,662.73Z"/><path class="cls-8" d="M353.67,660.38a119.08,119.08,0,0,0,18.71,3.34c11.8,1.3,41.27-.47,41.45-1.86s-6.33-51.89-6-54.49.57-11.87.57-11.87c.14,2.54,2.73,12.91,5.85,18.56,1.13,2,4.43,6.64,6.74,7,12.87,1.94,26.23,2.92,27.09,2.69-.73-.31.81-8,0-8.23s-9.73-1.5-16.47-3c-2.47-.55-8.42-14.62-8.42-14.62-1.11-2.51-5.17-18.31-6.43-23.77-2.85-12.33-2.41-12.85-2.41-12.85-8.63-2.61-21.73-7.92-21.73-7.92l-17.28-.7s-15.86,3.49-22.11,6.31c-.59.27-.59,14.15-2.22,17.79l5.18,10.93s3,21.64,3.61,31.27C360.13,623.36,353.67,660.38,353.67,660.38Z"/><path class="cls-8" d="M350.33,594.78c.45,1.45,2.5,2.68,3.83,3.22a5,5,0,0,0,2.77.28l.68-.13h0l11.84-2.2s2.59-29.84-16.18-37C352.77,559.12,346.19,581.41,350.33,594.78Z"/><path class="cls-2" d="M373.55,510.31s-14.19,1.44-.25,23Z"/><path class="cls-2" d="M395,725.55s3,0,3.74,1.5a7.44,7.44,0,0,1,.75,3H386.74l.75-4.49H395Z"/><path class="cls-9" d="M490.05,574.78a6.48,6.48,0,0,1-2,.69c-2.38.66-4.77,1.29-7.16,1.92-.23.06-.22.11-.1.28l7.71,10.38a2.75,2.75,0,0,1,.23.33.59.59,0,0,1-.23.94,5.18,5.18,0,0,1-.92.44c-4.07,1.52-8.16,3-12.26,4.45-2.71,1-5.43,1.92-8.15,2.87a10,10,0,0,1-1.6.43A1.71,1.71,0,0,1,464,597a7.81,7.81,0,0,1-1.12-1.56c-2.22-3.78-4.31-7.64-6.46-11.47-.23-.41-.23-.41-.68-.29l-13,3.38a3.3,3.3,0,0,1-1.56.07,2.43,2.43,0,0,1-1.77-1.43q-6.6-14.31-13.19-28.63a11.49,11.49,0,0,1-.53-1.42v-.48a1,1,0,0,1,1.06-.81l4.43-.33,7.34-.59a1.56,1.56,0,0,0,.64-.1h1.56a2.42,2.42,0,0,1,1.31,1.3q2.76,4.61,5.5,9.23l9.76,16.39a.31.31,0,0,0,.42.18c4.19-1,8.39-2,12.59-3l6.41-1.53.23-.06a.63.63,0,0,0-.16-.29l-6.14-8.76c-.53-.76-.38-1.17.54-1.34s2-.33,3-.49l5.65-.94.9-.13a1.53,1.53,0,0,1,1.25.43,13,13,0,0,1,1.54,1.78c2.07,2.57,4.1,5.17,6.21,7.71a1.34,1.34,0,0,0,.31.32Zm-47.77,9.43.33-.07,3-.72,8.69-2.09c.42-.1.47-.25.25-.61l-.15-.25q-7.23-12.47-14.44-25a.53.53,0,0,0-.59-.3c-.55.06-1.1.09-1.65.14l-3.95.34-4.65.41c-.4,0-.47.12-.34.5a2.56,2.56,0,0,0,.11.24c.22.44.45.88.66,1.32q6.21,12.75,12.4,25.51a1.16,1.16,0,0,1,.16.4C442.09,584.2,442.18,584.2,442.28,584.21Zm23.51,10,.25-.07,14.29-4.87,4.81-1.66c.28-.1.31-.17.16-.43a3.15,3.15,0,0,0-.22-.33l-4.7-6.46c-.54-.75-1.07-1.51-1.61-2.27-.15-.21-.31-.38-.62-.29l-4.71,1.25L459,582.83c-.19,0-.25.1-.13.31q2.86,4.88,5.71,9.76a6.55,6.55,0,0,0,.69,1.05A.66.66,0,0,0,465.79,594.21Zm15-28.55-.5.11L473.69,567c-.71.13-.73.19-.31.76l5.49,7.47a.29.29,0,0,0,.37.14l5.74-1.44,1.72-.4c.4-.1.44-.22.18-.53l-2.68-3.39L481.4,566A.8.8,0,0,0,480.83,565.66Z"/><path class="cls-10" d="M904,754H124a12,12,0,0,1-12-12h0a12,12,0,0,1,12-12H904a12,12,0,0,1,12,12h0A12,12,0,0,1,904,754Z"/><rect class="cls-2" x="385.24" y="626.74" width="62.13" height="5.99"/><path class="cls-10" d="M391.36,667.08H372.51c-13.16,0-23.83-11.51-23.83-25.7l6-51.5c2.05-13.72,14.75-22.54,27.64-22.54h0c13,0,25.81,9,27.7,22.94l5.2,51.1C415.18,655.57,404.52,667.08,391.36,667.08Z"/><path class="cls-8" d="M385.32,730h-6.53a2.68,2.68,0,0,1-2.69-2.69V612.81a2.69,2.69,0,0,1,2.69-2.7h6.53a2.7,2.7,0,0,1,2.69,2.7V727.35A2.69,2.69,0,0,1,385.32,730Z"/><path class="cls-8" d="M387.22,616.49H376.33a5.22,5.22,0,0,1-5.22-5.22V609a5.22,5.22,0,0,1,5.22-5.22h10.89a5.22,5.22,0,0,1,5.22,5.22v2.31A5.22,5.22,0,0,1,387.22,616.49Z"/><path class="cls-9" d="M408.8,692.61H355.69a4.13,4.13,0,0,1-4.14-4.13V681a4.14,4.14,0,0,1,4.14-4.13H408.8a4.14,4.14,0,0,1,4.14,4.13v7.45A4.13,4.13,0,0,1,408.8,692.61Z"/><path class="cls-5" d="M602.34,558.78c-.74,1.06-1.33,2.2-2,3.31q-8.45,14.53-16.86,29.08c-.26.46-.26.46-.53,0l-18.55-32a1,1,0,0,0-.27-.38v-.09l7.64,0,1,1.65,5.35,9.23,4.94,8.53c.15.27.26.27.41,0,.58-1,1.18-2,1.77-3q2.88-5,5.78-10l3.69-6.4h7.64A.28.28,0,0,1,602.34,558.78Z"/><path class="cls-2" d="M571.8,558.71c2.26,0,4.52,0,6.77,0,.29,0,.38.17.49.36,1.29,2.24,2.59,4.47,3.89,6.71l.27.43a.92.92,0,0,0,.32-.43c1.29-2.22,2.59-4.44,3.86-6.67a.66.66,0,0,1,.66-.4c2.21,0,4.42,0,6.63,0L591,565.1l-5.78,10c-.59,1-1.18,2-1.76,3-.16.27-.26.27-.42,0q-2.46-4.27-4.94-8.53l-5.35-9.23Z"/><polygon class="cls-3" points="394.65 722.56 394.22 725.55 388.24 725.55 388.24 722.56 394.65 722.56"/><path class="cls-11" d="M778.33,724.93a4.9,4.9,0,0,1-4.91,4.9H754.51a4.9,4.9,0,0,1-4.91-4.9V680.79a4.91,4.91,0,0,1,4.91-4.91h18.91a4.91,4.91,0,0,1,4.91,4.91Z"/><path class="cls-10" d="M766.23,625.07s-15.48,31.48,7.34,36.84S797,643.53,794.7,633.74s33.87-36.09,4-59.36S745.57,613.07,766.23,625.07Z"/><path class="cls-5" d="M737.4,642.16s-.73,20.72,12.87,18.09,8.2-15.59,4.57-20.3,9.52-27.65-12.21-33S723.36,640.69,737.4,642.16Z"/><line class="cls-12" x1="739.72" y1="622.64" x2="756.53" y2="675.88"/><polyline class="cls-12" points="749.53 633.48 745.96 642.42 737.85 637.95"/><line class="cls-12" x1="784.47" y1="592.51" x2="770.05" y2="675.88"/><polyline class="cls-12" points="792.93 605.12 780.98 612.67 773.32 602.32"/><polyline class="cls-12" points="789.66 622.6 777.71 630.15 770.05 619.8"/><path class="cls-13" d="M285,724.93a4.9,4.9,0,0,1-4.9,4.9H261.18a4.9,4.9,0,0,1-4.91-4.9V680.79a4.91,4.91,0,0,1,4.91-4.91H280.1a4.91,4.91,0,0,1,4.9,4.91Z"/><path class="cls-5" d="M272.9,625.07s-15.48,31.48,7.33,36.84,23.48-18.38,21.14-28.17,33.87-36.09,4-59.36S252.24,613.07,272.9,625.07Z"/><path class="cls-10" d="M244.07,642.16s-.73,20.72,12.86,18.09,8.21-15.59,4.58-20.3S271,612.3,249.3,607,230,640.69,244.07,642.16Z"/><line class="cls-12" x1="246.39" y1="622.64" x2="263.2" y2="675.88"/><polyline class="cls-12" points="256.2 633.48 252.63 642.42 244.52 637.95"/><line class="cls-12" x1="291.14" y1="592.51" x2="276.72" y2="675.88"/><polyline class="cls-12" points="299.61 605.12 287.65 612.67 279.99 602.32"/><polyline class="cls-12" points="296.33 622.6 284.38 630.15 276.72 619.8"/></svg>