<svg width="512" height="512" viewBox="0 0 512 512" fill="none" xmlns="http://www.w3.org/2000/svg">
<rect width="512" height="512" fill="white"/>
<circle cx="255" cy="256" r="225" fill="#7510F7"/>
<path d="M328.851 158.522C328.851 143.568 340.974 131.445 355.928 131.445C370.883 131.445 383.006 143.568 383.006 158.522V372.287C383.006 387.241 370.883 399.364 355.928 399.364C340.974 399.364 328.851 387.241 328.851 372.287V158.522Z" fill="white"/>
<g filter="url(#filter0_d)">
<path d="M228 83C228 68.0883 240.088 56 255 56V56C269.912 56 282 68.0883 282 83V123C282 137.912 269.912 150 255 150V150C240.088 150 228 137.912 228 123V83Z" fill="white"/>
</g>
<path d="M128.205 158.522C128.205 143.844 140.104 131.945 154.782 131.945C169.461 131.945 181.36 143.844 181.36 158.522V372.287C181.36 386.965 169.461 398.864 154.782 398.864C140.104 398.864 128.205 386.965 128.205 372.287V158.522Z" fill="white" stroke="black"/>
<circle cx="256" cy="237" r="27" fill="white"/>
<defs>
<filter id="filter0_d" x="224" y="56" width="62" height="102" filterUnits="userSpaceOnUse" color-interpolation-filters="sRGB">
<feFlood flood-opacity="0" result="BackgroundImageFix"/>
<feColorMatrix in="SourceAlpha" type="matrix" values="0 0 0 0 0 0 0 0 0 0 0 0 0 0 0 0 0 0 127 0"/>
<feOffset dy="4"/>
<feGaussianBlur stdDeviation="2"/>
<feColorMatrix type="matrix" values="0 0 0 0 0 0 0 0 0 0 0 0 0 0 0 0 0 0 0.25 0"/>
<feBlend mode="normal" in2="BackgroundImageFix" result="effect1_dropShadow"/>
<feBlend mode="normal" in="SourceGraphic" in2="effect1_dropShadow" result="shape"/>
</filter>
</defs>
</svg>
